<?xml version="1.0" encoding="UTF-8" standalone="no"?><!DOCTYPE svg PUBLIC "-//W3C//DTD SVG 1.1//EN" "http://www.w3.org/Graphics/SVG/1.1/DTD/svg11.dtd"><svg width="100%" height="100%" viewBox="0 0 600 192" version="1.1" xmlns="http://www.w3.org/2000/svg" xmlns:xlink="http://www.w3.org/1999/xlink" xml:space="preserve" xmlns:serif="http://www.serif.com/" style="fill-rule:evenodd;clip-rule:evenodd;stroke-linejoin:round;stroke-miterlimit:1.41421;"><g transform="matrix(2.04813,0,0,2.04813,-1204.6,-1080.53)"><text x="600.445px" y="591.3px" style="font-family:'Montserrat-Bold', 'Montserrat';font-weight:700;font-size:50px;">Up</text><text x="674.345px" y="591.3px" style="font-family:'MontserratAlternates-Bold', 'Montserrat Alternates';font-weight:700;font-size:50px;">t</text><text x="694.945px" y="591.3px" style="font-family:'Montserrat-Bold', 'Montserrat';font-weight:700;font-size:50px;">im<tspan x="762.745px " y="591.3px ">e</tspan></text></g><g id="_8bit-border-dark-red" serif:id="8bit-border-dark-red"><rect x="541.607" y="77.055" width="9.446" height="9.446" style="fill:#fff;fill-rule:nonzero;"/><rect x="532.717" y="68.164" width="8.89" height="8.891" style="fill:#fff;fill-rule:nonzero;"/><rect x="559.943" y="86.501" width="9.446" height="8.891" style="fill:#590909;fill-rule:nonzero;"/><rect x="559.943" y="77.055" width="9.446" height="9.446" style="fill:#590909;fill-rule:nonzero;"/><rect x="559.943" y="68.164" width="9.446" height="23.122" style="fill:#590909;fill-rule:nonzero;"/><rect x="551.053" y="95.391" width="8.891" height="8.89" style="fill:#590909;fill-rule:nonzero;"/><rect x="526.384" y="86.501" width="33.559" height="8.891" style="fill:#f00;fill-rule:nonzero;"/><rect x="551.053" y="77.055" width="8.891" height="11.8" style="fill:#f00;fill-rule:nonzero;"/><rect x="551.053" y="68.164" width="8.891" height="8.891" style="fill:#f00;fill-rule:nonzero;"/><rect x="551.053" y="58.718" width="8.891" height="9.446" style="fill:#590909;fill-rule:nonzero;"/><rect x="541.607" y="104.281" width="9.446" height="9.446" style="fill:#590909;fill-rule:nonzero;"/><rect x="536.841" y="95.391" width="14.211" height="8.89" style="fill:#f00;fill-rule:nonzero;"/><rect x="541.607" y="86.501" width="9.446" height="8.891" style="fill:#f00;fill-rule:nonzero;"/><rect x="541.607" y="68.164" width="17.907" height="8.891" style="fill:#f00;fill-rule:nonzero;"/><rect x="541.607" y="58.718" width="9.446" height="11.316" style="fill:#f00;fill-rule:nonzero;"/><rect x="526.95" y="49.828" width="24.103" height="8.89" style="fill:#590909;fill-rule:nonzero;"/><rect x="532.717" y="113.728" width="8.89" height="8.89" style="fill:#590909;fill-rule:nonzero;"/><rect x="532.717" y="104.281" width="8.89" height="9.446" style="fill:#f00;fill-rule:nonzero;"/><rect x="532.717" y="95.391" width="8.89" height="8.89" style="fill:#f00;fill-rule:nonzero;"/><rect x="532.717" y="86.501" width="8.89" height="8.891" style="fill:#f00;fill-rule:nonzero;"/><rect x="532.717" y="77.055" width="8.89" height="9.446" style="fill:#f00;fill-rule:nonzero;"/><rect x="529.757" y="58.718" width="18.656" height="9.446" style="fill:#f00;fill-rule:nonzero;"/><rect x="532.717" y="49.828" width="8.89" height="8.89" style="fill:#590909;fill-rule:nonzero;"/><rect x="523.271" y="122.618" width="9.446" height="8.891" style="fill:#590909;fill-rule:nonzero;"/><rect x="496.085" y="113.156" width="36.631" height="9.462" style="fill:#f00;fill-rule:nonzero;"/><rect x="523.271" y="104.281" width="9.446" height="9.446" style="fill:#f00;fill-rule:nonzero;"/><rect x="523.271" y="95.391" width="9.446" height="8.89" style="fill:#f00;fill-rule:nonzero;"/><rect x="523.271" y="86.501" width="9.446" height="8.891" style="fill:#f00;fill-rule:nonzero;"/><rect x="523.271" y="77.055" width="9.446" height="9.446" style="fill:#f00;fill-rule:nonzero;"/><rect x="523.271" y="68.164" width="9.446" height="8.891" style="fill:#f00;fill-rule:nonzero;"/><rect x="523.271" y="58.718" width="9.446" height="10.806" style="fill:#f00;fill-rule:nonzero;"/><rect x="523.271" y="49.828" width="9.446" height="8.89" style="fill:#590909;fill-rule:nonzero;"/><rect x="514.38" y="131.509" width="8.891" height="9.446" style="fill:#590909;fill-rule:nonzero;"/><rect x="514.38" y="122.618" width="8.891" height="8.891" style="fill:#f00;fill-rule:nonzero;"/><rect x="514.38" y="113.728" width="8.891" height="8.89" style="fill:#f00;fill-rule:nonzero;"/><rect x="514.38" y="104.281" width="8.891" height="9.446" style="fill:#f00;fill-rule:nonzero;"/><rect x="514.38" y="95.391" width="8.891" height="8.89" style="fill:#f00;fill-rule:nonzero;"/><rect x="514.38" y="86.501" width="8.891" height="8.891" style="fill:#f00;fill-rule:nonzero;"/><rect x="514.38" y="77.055" width="8.891" height="9.446" style="fill:#f00;fill-rule:nonzero;"/><rect x="514.38" y="68.164" width="17.843" height="12.036" style="fill:#f00;fill-rule:nonzero;"/><rect x="514.38" y="58.718" width="8.891" height="9.446" style="fill:#590909;fill-rule:nonzero;"/><rect x="504.934" y="140.955" width="9.446" height="8.89" style="fill:#590909;fill-rule:nonzero;"/><rect x="504.934" y="131.509" width="9.446" height="9.446" style="fill:#bf0000;fill-rule:nonzero;"/><rect x="504.934" y="121.739" width="17.965" height="9.77" style="fill:#f00;fill-rule:nonzero;"/><rect x="504.934" y="113.728" width="9.446" height="8.89" style="fill:#f00;fill-rule:nonzero;"/><rect x="504.934" y="104.281" width="9.446" height="9.446" style="fill:#f00;fill-rule:nonzero;"/><rect x="504.934" y="95.391" width="9.446" height="8.89" style="fill:#f00;fill-rule:nonzero;"/><rect x="504.934" y="86.501" width="9.446" height="8.891" style="fill:#f00;fill-rule:nonzero;"/><rect x="504.934" y="77.055" width="9.446" height="9.446" style="fill:#f00;fill-rule:nonzero;"/><rect x="504.934" y="68.164" width="9.446" height="8.891" style="fill:#590909;fill-rule:nonzero;"/><rect x="495.488" y="131.509" width="9.446" height="9.446" style="fill:#590909;fill-rule:nonzero;"/><rect x="495.488" y="122.618" width="9.446" height="8.891" style="fill:#bf0000;fill-rule:nonzero;"/><rect x="495.488" y="113.728" width="9.446" height="8.89" style="fill:#f00;fill-rule:nonzero;"/><rect x="495.488" y="104.281" width="9.446" height="9.446" style="fill:#f00;fill-rule:nonzero;"/><rect x="495.488" y="95.391" width="9.446" height="8.89" style="fill:#f00;fill-rule:nonzero;"/><rect x="495.488" y="86.501" width="9.446" height="8.891" style="fill:#f00;fill-rule:nonzero;"/><rect x="495.488" y="77.055" width="9.446" height="9.446" style="fill:#f00;fill-rule:nonzero;"/><rect x="493.789" y="68.164" width="11.144" height="10.789" style="fill:#f00;fill-rule:nonzero;"/><rect x="495.488" y="58.718" width="9.446" height="9.446" style="fill:#590909;fill-rule:nonzero;"/><rect x="486.597" y="122.618" width="8.891" height="8.891" style="fill:#590909;fill-rule:nonzero;"/><rect x="486.597" y="113.728" width="8.891" height="8.89" style="fill:#bf0000;fill-rule:nonzero;"/><rect x="486.597" y="104.281" width="8.891" height="9.446" style="fill:#f00;fill-rule:nonzero;"/><rect x="486.597" y="77.305" width="54.653" height="36.335" style="fill:#f00;fill-rule:nonzero;"/><rect x="486.597" y="86.501" width="8.891" height="8.891" style="fill:#f00;fill-rule:nonzero;"/><rect x="486.597" y="77.055" width="8.891" height="9.446" style="fill:#f00;fill-rule:nonzero;"/><rect x="486.597" y="68.164" width="8.891" height="8.891" style="fill:#f00;fill-rule:nonzero;"/><rect x="486.597" y="58.718" width="8.891" height="9.446" style="fill:#f00;fill-rule:nonzero;"/><rect x="475.396" y="49.828" width="20.092" height="8.89" style="fill:#590909;fill-rule:nonzero;"/><rect x="477.151" y="113.728" width="9.446" height="8.89" style="fill:#590909;fill-rule:nonzero;"/><rect x="477.151" y="104.281" width="9.446" height="9.446" style="fill:#bf0000;fill-rule:nonzero;"/><rect x="477.151" y="93.213" width="10.29" height="11.068" style="fill:#f00;fill-rule:nonzero;"/><rect x="477.151" y="86.501" width="9.446" height="8.891" style="fill:#f00;fill-rule:nonzero;"/><rect x="477.151" y="77.055" width="9.446" height="9.446" style="fill:#f00;fill-rule:nonzero;"/><rect x="477.151" y="68.164" width="9.446" height="8.891" style="fill:#f00;fill-rule:nonzero;"/><rect x="477.151" y="58.718" width="9.446" height="9.446" style="fill:#f00;fill-rule:nonzero;"/><rect x="477.151" y="49.828" width="9.446" height="8.89" style="fill:#590909;fill-rule:nonzero;"/><rect x="468.261" y="104.281" width="8.89" height="9.446" style="fill:#590909;fill-rule:nonzero;"/><rect x="468.261" y="95.391" width="8.89" height="8.89" style="fill:#bf0000;fill-rule:nonzero;"/><rect x="468.261" y="86.501" width="8.89" height="8.891" style="fill:#f00;fill-rule:nonzero;"/><rect x="468.261" y="77.055" width="8.89" height="9.446" style="fill:#f00;fill-rule:nonzero;"/><rect x="468.261" y="68.164" width="8.89" height="8.891" style="fill:#f00;fill-rule:nonzero;"/><rect x="468.261" y="58.718" width="27.112" height="36.519" style="fill:#f00;fill-rule:nonzero;"/><rect x="468.261" y="49.828" width="8.89" height="8.89" style="fill:#590909;fill-rule:nonzero;"/><rect x="458.815" y="95.391" width="9.446" height="8.89" style="fill:#590909;fill-rule:nonzero;"/><rect x="458.815" y="86.501" width="9.446" height="8.891" style="fill:#bf0000;fill-rule:nonzero;"/><rect x="458.815" y="77.055" width="9.446" height="9.446" style="fill:#bf0000;fill-rule:nonzero;"/><rect x="458.815" y="68.164" width="9.446" height="23.648" style="fill:#bf0000;fill-rule:nonzero;"/><rect x="458.815" y="58.718" width="9.446" height="9.446" style="fill:#590909;fill-rule:nonzero;"/><rect x="449.925" y="71.698" width="8.89" height="23.694" style="fill:#590909;fill-rule:nonzero;"/><rect x="449.925" y="77.055" width="8.89" height="9.446" style="fill:#590909;fill-rule:nonzero;"/><rect x="449.925" y="68.164" width="8.89" height="8.891" style="fill:#590909;fill-rule:nonzero;"/></g></svg>